<?xml version="1.0" encoding="UTF-8" standalone="no"?>
<svg width="500px" height="500px" viewBox="0 0 500 500" version="1.1" xmlns="http://www.w3.org/2000/svg" xmlns:xlink="http://www.w3.org/1999/xlink" style="background: #1B2021;">
    <!-- Generator: Sketch 3.8.3 (29802) - http://www.bohemiancoding.com/sketch -->
    <title>Image-Cache</title>
    <desc>Created with Sketch.</desc>
    <defs>
        <circle id="path-1" cx="192" cy="177" r="47"></circle>
        <mask id="mask-2" maskContentUnits="userSpaceOnUse" maskUnits="objectBoundingBox" x="0" y="0" width="94" height="94" fill="white">
            <use xlink:href="#path-1"></use>
        </mask>
    </defs>
    <g id="Page-1" stroke="none" stroke-width="1" fill="none" fill-rule="evenodd">
        <g id="Image-Cache">
            <path d="M417.701268,230.430904 L417.701268,103.695903 C417.701268,103.695903 412.55083,81.7717534 383.369563,81.7717541 C354.188296,81.7717548 117.517166,81.7717541 117.517166,81.7717541 C117.517166,81.7717541 84.2308486,85.3067049 84.2308495,115.229114 C84.2308504,145.151522 84.2308495,380.735006 84.2308495,380.735006 C84.2308495,380.735006 84.6167913,417.895932 115.485269,417.895946 C146.353748,417.895961 302.855231,417.895946 302.855231,417.895946" id="Path-2" stroke="#FFFFFF" stroke-width="20" stroke-linecap="round"></path>
            <use id="Oval-1" stroke="#FFFFFF" mask="url(#mask-2)" stroke-width="24" stroke-linecap="square" xlink:href="#path-1"></use>
            <polyline id="Path-3" stroke="#FFFFFF" stroke-width="10" stroke-linecap="round" stroke-linejoin="round" points="196.322009 338.495073 269.435918 255.22725 298.680435 301.324273"></polyline>
            <polyline id="Path-3-Copy" stroke="#FFFFFF" stroke-width="10" stroke-linecap="round" stroke-linejoin="round" points="283.806881 277.503553 323.650326 232.503923 345.649763 266.82709"></polyline>
            <rect id="Rectangle-1" fill="#FFFFFF" x="344" y="445" width="147" height="25" rx="12.5"></rect>
            <rect id="Rectangle-1-Copy" fill="#FFFFFF" transform="translate(418.000000, 338.250000) rotate(-90.000000) translate(-418.000000, -338.250000) " x="351.75" y="328.25" width="132.5" height="20" rx="10"></rect>
            <polyline id="Rectangle-3" stroke="#FFFFFF" stroke-width="20" stroke-linecap="round" stroke-linejoin="round" transform="translate(417.713163, 361.713163) rotate(-45.000000) translate(-417.713163, -361.713163) " points="455.694104 399.694104 379.732221 399.694104 379.732221 323.732221 379.732221 323.732221"></polyline>
        </g>
    </g>
</svg>