<?xml version="1.0" encoding="UTF-8" standalone="no"?>
<svg width="500px" height="500px" viewBox="0 0 500 500" version="1.1" xmlns="http://www.w3.org/2000/svg" xmlns:xlink="http://www.w3.org/1999/xlink" style="background: #FF007A;">
    <!-- Generator: Sketch 3.8.3 (29802) - http://www.bohemiancoding.com/sketch -->
    <title>Logo-1</title>
    <desc>Created with Sketch.</desc>
    <defs>
        <rect id="path-1" x="0" y="0" width="500" height="500"></rect>
        <mask id="mask-2" maskContentUnits="userSpaceOnUse" maskUnits="objectBoundingBox" x="0" y="0" width="500" height="500" fill="white">
            <use xlink:href="#path-1"></use>
        </mask>
        <circle id="path-3" cx="190" cy="152" r="38"></circle>
        <mask id="mask-4" maskContentUnits="userSpaceOnUse" maskUnits="objectBoundingBox" x="0" y="0" width="76" height="76" fill="white">
            <use xlink:href="#path-3"></use>
        </mask>
    </defs>
    <g id="Page-1" stroke="none" stroke-width="1" fill="none" fill-rule="evenodd">
        <g id="Logo-1">
            <use id="Rectangle-12" stroke="#1B2021" mask="url(#mask-2)" stroke-width="4" stroke-linecap="square" fill="#1B2021" xlink:href="#path-1"></use>
            <path d="M381.76915,199.177382 L381.76915,89.0509915 C381.76915,89.0509915 377.293677,69.9999994 351.936613,70 C326.579548,70.0000006 120.924148,70 120.924148,70 C120.924148,70 91.9999992,73.0716958 92,99.0727757 C92.0000008,125.073856 92,329.784145 92,329.784145 C92,329.784145 92.3353641,362.075135 119.158531,362.075147 C145.981698,362.07516 281.973676,362.075147 281.973676,362.075147" id="Path-2" stroke="#FFFFFF" stroke-width="20" stroke-linecap="round"></path>
            <use id="Oval-1" stroke="#FFFFFF" mask="url(#mask-4)" stroke-width="24" stroke-linecap="square" xlink:href="#path-3"></use>
            <polyline id="Path-3" stroke="#FFFFFF" stroke-width="10" stroke-linecap="round" stroke-linejoin="round" points="182 296.267822 255.113909 213 284.358425 259.097022"></polyline>
            <polyline id="Path-3-Copy" stroke="#FFFFFF" stroke-width="10" stroke-linecap="round" stroke-linejoin="round" points="269 234.99963 308.843445 190 330.842883 224.323167"></polyline>
            <rect id="Rectangle-1" fill="#FFFFFF" x="331" y="436" width="147" height="25" rx="12.5"></rect>
            <rect id="Rectangle-1-Copy" fill="#FFFFFF" transform="translate(405.000000, 329.250000) rotate(-90.000000) translate(-405.000000, -329.250000) " x="338.75" y="319.25" width="132.5" height="20" rx="10"></rect>
            <polyline id="Rectangle-3" stroke="#FFFFFF" stroke-width="20" stroke-linecap="round" stroke-linejoin="round" transform="translate(404.713163, 352.713163) rotate(-45.000000) translate(-404.713163, -352.713163) " points="442.694104 390.694104 366.732221 390.694104 366.732221 314.732221 366.732221 314.732221"></polyline>
        </g>
    </g>
</svg>